<svg width="233" height="86" viewBox="0 0 233 86" fill="none" xmlns="http://www.w3.org/2000/svg">
<path d="M62.9522 63.9452C60.4739 63.9452 56.878 63.933 52.1644 63.9087L53.8409 57.4943L59.0161 57.4579C60.2552 57.4822 61.8102 57.4458 63.6811 57.3486C65.1146 57.5186 65.8921 57.2149 66.0136 56.4374C65.6248 55.9758 64.9202 55.5992 63.8998 55.3076L61.7131 54.9067C60.7412 54.7367 59.9151 54.5666 59.2348 54.3965C58.2872 54.1292 57.4611 53.8377 56.7565 53.5218C55.9061 53.1088 55.1772 52.635 54.5698 52.1004C53.1606 50.8127 52.456 49.0755 52.456 46.8888C52.456 44.6778 53.2335 42.649 54.7885 40.8024C56.8051 39.053 59.3927 38.1784 62.5513 38.1784C66.7061 38.1298 70.0955 38.3849 72.7195 38.9437L71.4075 45.0665C67.6415 45.0422 64.4343 45.0301 61.7859 45.0301C60.8384 44.8843 60.3889 45.2001 60.4375 45.9776C60.3889 46.6337 60.9234 47.071 62.0411 47.2897L63.4624 47.5812C63.5353 47.5812 63.5839 47.5934 63.6082 47.6177C63.8512 47.642 64.0456 47.6784 64.1913 47.727C65.1875 47.9214 66.0257 48.1036 66.7061 48.2737C67.6293 48.541 68.4554 48.8325 69.1843 49.1484C70.0347 49.5614 70.7515 50.0231 71.3346 50.5333C72.7438 51.7724 73.4484 53.4246 73.4484 55.4899C73.4484 58.1625 72.513 60.2399 70.6421 61.722C68.8928 62.9368 66.3295 63.6779 62.9522 63.9452ZM87.9274 63.9452C84.0885 63.9452 80.9057 62.7789 78.3788 60.4464C75.8276 58.0896 74.552 55.0647 74.552 51.3715C74.552 47.6541 75.7912 44.617 78.2694 42.2602C80.8449 39.952 83.8577 38.6522 87.3079 38.3606C89.2516 38.1662 91.2561 38.2998 93.3213 38.7615C95.3866 39.1988 97.4275 40.9118 99.4441 43.9003L94.524 47.9092C92.5074 45.9412 90.3085 45.0665 87.9274 45.2852C86.1781 45.2852 84.7567 45.8805 83.6633 47.071C82.57 48.213 82.0233 49.6465 82.0233 51.3715C82.0233 53.0966 82.57 54.5301 83.6633 55.6721C84.7567 56.8626 86.1781 57.4579 87.9274 57.4579C90.3328 57.6523 93.0055 56.8262 95.9454 54.9796L99.5899 59.6082L95.5081 62.6696C94.5119 63.2041 93.3942 63.5686 92.1551 63.7629C90.8431 63.8844 89.4338 63.9452 87.9274 63.9452ZM116.109 63.5078L108.602 56.073L108.638 63.5078H101.276V39.1988H114.251C116.996 39.1988 119.171 40.0249 120.774 41.6771C122.256 43.2078 122.997 45.1637 122.997 47.5448C122.997 49.4399 122.512 51.0678 121.54 52.4285C120.786 53.4975 118.782 54.3236 115.526 54.9067L124.455 63.5078H116.109ZM113.048 49.4399C114.7 49.4399 115.526 48.6746 115.526 47.1439C115.526 45.6618 114.7 44.9207 113.048 44.9207H108.383V49.4399H113.048ZM125.976 63.5078V39.1988H144.891L145.62 45.6132H133.338V48.8568H143.178V53.3396H133.338V57.0934H145.62L145.037 63.5078H125.976ZM163.905 63.5078L163.03 60.6651H154.283L153.409 63.5078H145.063L154.028 39.1988H163.285L172.251 63.5078H163.905ZM158.657 46.415L156.251 54.2507H161.062L158.657 46.415ZM195.064 63.5078V51.3351L189.634 61.8678H186.354L180.923 50.424V63.5078H173.562V39.1988H183.73L187.994 49.3306L192.258 39.1988H202.426V63.5078H195.064Z" fill="black"/>
<path d="M89.601 31.6804V35.0221H90.1834V36.9375H89.4198V35.6562H86.3577V31.6804H87.1161V34.9884H88.8452V31.6804H89.601ZM92.7123 35.7365C92.3206 35.7365 91.9833 35.6528 91.7002 35.4854C91.419 35.3163 91.2015 35.079 91.048 34.7736C90.8961 34.4664 90.8202 34.1066 90.8202 33.6942C90.8202 33.287 90.8961 32.928 91.048 32.6174C91.2015 32.3068 91.4155 32.0644 91.6899 31.8901C91.966 31.7158 92.2887 31.6286 92.658 31.6286C92.8823 31.6286 93.0997 31.6657 93.3103 31.7399C93.5208 31.8141 93.7097 31.9306 93.8771 32.0894C94.0445 32.2481 94.1765 32.4543 94.2732 32.708C94.3698 32.96 94.4181 33.2663 94.4181 33.6269V33.9013H91.2576V33.3215H93.6597C93.6597 33.1179 93.6183 32.9375 93.5355 32.7805C93.4526 32.6217 93.3361 32.4966 93.186 32.4052C93.0376 32.3137 92.8633 32.268 92.6631 32.268C92.4457 32.268 92.2559 32.3215 92.0937 32.4285C91.9332 32.5337 91.809 32.6718 91.721 32.8426C91.6347 33.0117 91.5915 33.1955 91.5915 33.394V33.8469C91.5915 34.1127 91.6381 34.3387 91.7313 34.5251C91.8262 34.7115 91.9582 34.8538 92.1273 34.9522C92.2965 35.0488 92.494 35.0971 92.7201 35.0971C92.8668 35.0971 93.0005 35.0764 93.1213 35.035C93.2421 34.9919 93.3465 34.928 93.4345 34.8435C93.5225 34.7589 93.5898 34.6545 93.6364 34.5303L94.3689 34.6623C94.3103 34.878 94.205 35.0669 94.0531 35.2292C93.903 35.3896 93.7141 35.5147 93.4863 35.6045C93.2602 35.6925 93.0022 35.7365 92.7123 35.7365ZM97.9714 33.3344V34.0048H95.8178V33.3344H97.9714ZM96.0352 31.6804V35.6562H95.2768V31.6804H96.0352ZM98.5124 31.6804V35.6562H97.7566V31.6804H98.5124ZM99.0547 32.3482V31.6804H102.409V32.3482H101.112V35.6562H100.357V32.3482H99.0547ZM103.228 37.1472V31.6804H103.984V32.3249H104.048C104.093 32.2421 104.158 32.1463 104.243 32.0376C104.327 31.9289 104.444 31.834 104.595 31.7529C104.745 31.6701 104.943 31.6286 105.19 31.6286C105.511 31.6286 105.797 31.7097 106.049 31.8719C106.301 32.0342 106.499 32.268 106.642 32.5734C106.787 32.8789 106.859 33.2464 106.859 33.6761C106.859 34.1058 106.788 34.4742 106.645 34.7814C106.501 35.0868 106.305 35.3223 106.054 35.488C105.804 35.6519 105.519 35.7339 105.198 35.7339C104.956 35.7339 104.758 35.6934 104.605 35.6122C104.453 35.5311 104.334 35.4362 104.248 35.3275C104.161 35.2188 104.095 35.1222 104.048 35.0376H104.002V37.1472H103.228ZM103.986 33.6683C103.986 33.9479 104.027 34.1929 104.108 34.4034C104.189 34.614 104.306 34.7788 104.46 34.8978C104.614 35.0152 104.802 35.0739 105.024 35.0739C105.255 35.0739 105.449 35.0126 105.604 34.8901C105.759 34.7658 105.877 34.5976 105.956 34.3853C106.037 34.1731 106.078 33.9341 106.078 33.6683C106.078 33.406 106.038 33.1705 105.959 32.9617C105.881 32.7529 105.764 32.5881 105.607 32.4673C105.451 32.3465 105.257 32.2861 105.024 32.2861C104.8 32.2861 104.61 32.3439 104.455 32.4595C104.301 32.5751 104.185 32.7365 104.105 32.9436C104.026 33.1506 103.986 33.3922 103.986 33.6683ZM109.656 35.6562V31.6804H112.899V35.6562H112.141V32.3482H110.409V35.6562H109.656ZM115.608 35.7365C115.224 35.7365 114.892 35.6493 114.614 35.4751C114.338 35.299 114.126 35.0566 113.978 34.7477C113.829 34.4388 113.755 34.0851 113.755 33.6864C113.755 33.2826 113.831 32.9263 113.983 32.6174C114.135 32.3068 114.349 32.0644 114.625 31.8901C114.901 31.7158 115.226 31.6286 115.601 31.6286C115.903 31.6286 116.172 31.6847 116.408 31.7969C116.645 31.9073 116.835 32.0626 116.98 32.2628C117.127 32.463 117.214 32.6968 117.242 32.9643H116.488C116.447 32.7779 116.352 32.6174 116.204 32.4828C116.057 32.3482 115.86 32.2809 115.614 32.2809C115.398 32.2809 115.209 32.3379 115.047 32.4518C114.886 32.5639 114.761 32.7244 114.671 32.9332C114.582 33.1403 114.537 33.3853 114.537 33.6683C114.537 33.9582 114.581 34.2084 114.669 34.419C114.757 34.6295 114.881 34.7926 115.042 34.9082C115.204 35.0238 115.394 35.0816 115.614 35.0816C115.76 35.0816 115.893 35.0549 116.012 35.0014C116.133 34.9462 116.234 34.8676 116.315 34.7658C116.398 34.664 116.456 34.5415 116.488 34.3983H117.242C117.214 34.6554 117.13 34.8849 116.991 35.0868C116.851 35.2887 116.664 35.4474 116.429 35.5631C116.196 35.6787 115.922 35.7365 115.608 35.7365ZM118.828 34.5717L120.58 31.6804H121.414V35.6562H120.655V32.7624L118.911 35.6562H118.069V31.6804H118.828V34.5717ZM123.065 31.6804L123.943 33.2283L124.828 31.6804H125.674L124.434 33.6683L125.685 35.6562H124.838L123.943 34.1705L123.05 35.6562H122.2L123.438 33.6683L122.216 31.6804H123.065ZM127.987 35.7365C127.614 35.7365 127.289 35.6511 127.011 35.4802C126.733 35.3094 126.518 35.0704 126.364 34.7632C126.21 34.4561 126.134 34.0971 126.134 33.6864C126.134 33.274 126.21 32.9134 126.364 32.6045C126.518 32.2956 126.733 32.0557 127.011 31.8849C127.289 31.7141 127.614 31.6286 127.987 31.6286C128.36 31.6286 128.685 31.7141 128.963 31.8849C129.241 32.0557 129.456 32.2956 129.61 32.6045C129.763 32.9134 129.84 33.274 129.84 33.6864C129.84 34.0971 129.763 34.4561 129.61 34.7632C129.456 35.0704 129.241 35.3094 128.963 35.4802C128.685 35.6511 128.36 35.7365 127.987 35.7365ZM127.99 35.0868C128.231 35.0868 128.431 35.0229 128.59 34.8952C128.749 34.7676 128.866 34.5976 128.942 34.3853C129.02 34.1731 129.059 33.9393 129.059 33.6839C129.059 33.4302 129.02 33.1972 128.942 32.985C128.866 32.771 128.749 32.5993 128.59 32.4699C128.431 32.3405 128.231 32.2757 127.99 32.2757C127.746 32.2757 127.544 32.3405 127.384 32.4699C127.225 32.5993 127.107 32.771 127.029 32.985C126.953 33.1972 126.915 33.4302 126.915 33.6839C126.915 33.9393 126.953 34.1731 127.029 34.3853C127.107 34.5976 127.225 34.7676 127.384 34.8952C127.544 35.0229 127.746 35.0868 127.99 35.0868ZM130.391 35.6562L130.388 34.9858H130.531C130.641 34.9858 130.734 34.9625 130.808 34.916C130.884 34.8676 130.946 34.7865 130.994 34.6726C131.042 34.5588 131.079 34.4017 131.105 34.2015C131.131 33.9996 131.15 33.746 131.162 33.4405L131.232 31.6804H134.007V35.6562H133.249V32.3482H131.949L131.887 33.6994C131.872 34.0273 131.838 34.3137 131.786 34.5588C131.736 34.8038 131.663 35.0083 131.566 35.1722C131.469 35.3344 131.345 35.4561 131.193 35.5372C131.042 35.6166 130.857 35.6562 130.639 35.6562H130.391ZM136.714 35.7365C136.341 35.7365 136.016 35.6511 135.738 35.4802C135.46 35.3094 135.245 35.0704 135.091 34.7632C134.937 34.4561 134.861 34.0971 134.861 33.6864C134.861 33.274 134.937 32.9134 135.091 32.6045C135.245 32.2956 135.46 32.0557 135.738 31.8849C136.016 31.7141 136.341 31.6286 136.714 31.6286C137.087 31.6286 137.412 31.7141 137.69 31.8849C137.968 32.0557 138.183 32.2956 138.337 32.6045C138.49 32.9134 138.567 33.274 138.567 33.6864C138.567 34.0971 138.49 34.4561 138.337 34.7632C138.183 35.0704 137.968 35.3094 137.69 35.4802C137.412 35.6511 137.087 35.7365 136.714 35.7365ZM136.716 35.0868C136.958 35.0868 137.158 35.0229 137.317 34.8952C137.476 34.7676 137.593 34.5976 137.669 34.3853C137.747 34.1731 137.785 33.9393 137.785 33.6839C137.785 33.4302 137.747 33.1972 137.669 32.985C137.593 32.771 137.476 32.5993 137.317 32.4699C137.158 32.3405 136.958 32.2757 136.716 32.2757C136.473 32.2757 136.271 32.3405 136.111 32.4699C135.952 32.5993 135.834 32.771 135.756 32.985C135.68 33.1972 135.642 33.4302 135.642 33.6839C135.642 33.9393 135.68 34.1731 135.756 34.3853C135.834 34.5976 135.952 34.7676 136.111 34.8952C136.271 35.0229 136.473 35.0868 136.716 35.0868ZM141.973 31.6804V32.3482H140.195V35.6562H139.431V31.6804H141.973ZM143.549 34.5717L145.302 31.6804H146.135V35.6562H145.377V32.7624L143.632 35.6562H142.791V31.6804H143.549V34.5717ZM150.367 31.6804V35.6562H149.611V31.6804H150.367ZM150.039 33.526V34.1938C149.919 34.2421 149.793 34.2852 149.661 34.3232C149.528 34.3594 149.388 34.3879 149.241 34.4086C149.095 34.4293 148.942 34.4397 148.783 34.4397C148.291 34.4397 147.9 34.3198 147.611 34.0799C147.321 33.8383 147.176 33.469 147.176 32.972V31.6726H147.929V32.972C147.929 33.1601 147.963 33.3128 148.032 33.4302C148.102 33.5475 148.2 33.6338 148.328 33.689C148.455 33.7443 148.607 33.7719 148.783 33.7719C149.016 33.7719 149.231 33.7503 149.428 33.7072C149.626 33.6623 149.83 33.6019 150.039 33.526ZM153.11 35.7365C152.719 35.7365 152.381 35.6528 152.098 35.4854C151.817 35.3163 151.6 35.079 151.446 34.7736C151.294 34.4664 151.218 34.1066 151.218 33.6942C151.218 33.287 151.294 32.928 151.446 32.6174C151.6 32.3068 151.814 32.0644 152.088 31.8901C152.364 31.7158 152.687 31.6286 153.056 31.6286C153.28 31.6286 153.498 31.6657 153.708 31.7399C153.919 31.8141 154.108 31.9306 154.275 32.0894C154.443 32.2481 154.575 32.4543 154.671 32.708C154.768 32.96 154.816 33.2663 154.816 33.6269V33.9013H151.656V33.3215H154.058C154.058 33.1179 154.016 32.9375 153.933 32.7805C153.851 32.6217 153.734 32.4966 153.584 32.4052C153.436 32.3137 153.261 32.268 153.061 32.268C152.844 32.268 152.654 32.3215 152.492 32.4285C152.331 32.5337 152.207 32.6718 152.119 32.8426C152.033 33.0117 151.99 33.1955 151.99 33.394V33.8469C151.99 34.1127 152.036 34.3387 152.129 34.5251C152.224 34.7115 152.356 34.8538 152.525 34.9522C152.694 35.0488 152.892 35.0971 153.118 35.0971C153.265 35.0971 153.399 35.0764 153.519 35.035C153.64 34.9919 153.745 34.928 153.833 34.8435C153.921 34.7589 153.988 34.6545 154.034 34.5303L154.767 34.6623C154.708 34.878 154.603 35.0669 154.451 35.2292C154.301 35.3896 154.112 35.5147 153.884 35.6045C153.658 35.6925 153.4 35.7365 153.11 35.7365ZM157.35 35.7365C156.965 35.7365 156.633 35.6493 156.356 35.4751C156.08 35.299 155.867 35.0566 155.719 34.7477C155.57 34.4388 155.496 34.0851 155.496 33.6864C155.496 33.2826 155.572 32.9263 155.724 32.6174C155.876 32.3068 156.09 32.0644 156.366 31.8901C156.642 31.7158 156.967 31.6286 157.342 31.6286C157.644 31.6286 157.913 31.6847 158.149 31.7969C158.386 31.9073 158.576 32.0626 158.721 32.2628C158.868 32.463 158.955 32.6968 158.983 32.9643H158.23C158.188 32.7779 158.093 32.6174 157.945 32.4828C157.798 32.3482 157.602 32.2809 157.355 32.2809C157.139 32.2809 156.95 32.3379 156.788 32.4518C156.627 32.5639 156.502 32.7244 156.413 32.9332C156.323 33.1403 156.278 33.3853 156.278 33.6683C156.278 33.9582 156.322 34.2084 156.41 34.419C156.498 34.6295 156.622 34.7926 156.783 34.9082C156.945 35.0238 157.136 35.0816 157.355 35.0816C157.501 35.0816 157.634 35.0549 157.753 35.0014C157.874 34.9462 157.975 34.8676 158.056 34.7658C158.139 34.664 158.197 34.5415 158.23 34.3983H158.983C158.955 34.6554 158.872 34.8849 158.732 35.0868C158.592 35.2887 158.405 35.4474 158.17 35.5631C157.937 35.6787 157.664 35.7365 157.35 35.7365ZM159.811 35.6562V31.6804H160.584V33.3474H160.957L162.27 31.6804H163.227L161.687 33.614L163.245 35.6562H162.285L161.087 34.0669H160.584V35.6562H159.811ZM165.358 35.7365C164.985 35.7365 164.66 35.6511 164.382 35.4802C164.104 35.3094 163.888 35.0704 163.735 34.7632C163.581 34.4561 163.504 34.0971 163.504 33.6864C163.504 33.274 163.581 32.9134 163.735 32.6045C163.888 32.2956 164.104 32.0557 164.382 31.8849C164.66 31.7141 164.985 31.6286 165.358 31.6286C165.73 31.6286 166.056 31.7141 166.333 31.8849C166.611 32.0557 166.827 32.2956 166.981 32.6045C167.134 32.9134 167.211 33.274 167.211 33.6864C167.211 34.0971 167.134 34.4561 166.981 34.7632C166.827 35.0704 166.611 35.3094 166.333 35.4802C166.056 35.6511 165.73 35.7365 165.358 35.7365ZM165.36 35.0868C165.602 35.0868 165.802 35.0229 165.961 34.8952C166.119 34.7676 166.237 34.5976 166.313 34.3853C166.39 34.1731 166.429 33.9393 166.429 33.6839C166.429 33.4302 166.39 33.1972 166.313 32.985C166.237 32.771 166.119 32.5993 165.961 32.4699C165.802 32.3405 165.602 32.2757 165.36 32.2757C165.117 32.2757 164.915 32.3405 164.754 32.4699C164.596 32.5993 164.477 32.771 164.4 32.985C164.324 33.1972 164.286 33.4302 164.286 33.6839C164.286 33.9393 164.324 34.1731 164.4 34.3853C164.477 34.5976 164.596 34.7676 164.754 34.8952C164.915 35.0229 165.117 35.0868 165.36 35.0868ZM168.833 34.5717L170.586 31.6804H171.419V35.6562H170.661V32.7624L168.916 35.6562H168.075V31.6804H168.833V34.5717ZM170.254 30.3344H170.891C170.891 30.626 170.787 30.8633 170.58 31.0462C170.375 31.2274 170.097 31.318 169.747 31.318C169.398 31.318 169.121 31.2274 168.916 31.0462C168.711 30.8633 168.608 30.626 168.608 30.3344H169.242C169.242 30.4638 169.28 30.5786 169.356 30.6787C169.432 30.777 169.562 30.8262 169.747 30.8262C169.928 30.8262 170.058 30.777 170.135 30.6787C170.215 30.5803 170.254 30.4656 170.254 30.3344ZM174.389 35.6562V31.6804H177.632V35.6562H176.874V32.3482H175.142V35.6562H174.389ZM180.341 35.7365C179.969 35.7365 179.643 35.6511 179.366 35.4802C179.088 35.3094 178.872 35.0704 178.718 34.7632C178.565 34.4561 178.488 34.0971 178.488 33.6864C178.488 33.274 178.565 32.9134 178.718 32.6045C178.872 32.2956 179.088 32.0557 179.366 31.8849C179.643 31.7141 179.969 31.6286 180.341 31.6286C180.714 31.6286 181.039 31.7141 181.317 31.8849C181.595 32.0557 181.811 32.2956 181.964 32.6045C182.118 32.9134 182.195 33.274 182.195 33.6864C182.195 34.0971 182.118 34.4561 181.964 34.7632C181.811 35.0704 181.595 35.3094 181.317 35.4802C181.039 35.6511 180.714 35.7365 180.341 35.7365ZM180.344 35.0868C180.586 35.0868 180.786 35.0229 180.945 34.8952C181.103 34.7676 181.221 34.5976 181.297 34.3853C181.374 34.1731 181.413 33.9393 181.413 33.6839C181.413 33.4302 181.374 33.1972 181.297 32.985C181.221 32.771 181.103 32.5993 180.945 32.4699C180.786 32.3405 180.586 32.2757 180.344 32.2757C180.101 32.2757 179.899 32.3405 179.738 32.4699C179.58 32.5993 179.461 32.771 179.384 32.985C179.308 33.1972 179.27 33.4302 179.27 33.6839C179.27 33.9393 179.308 34.1731 179.384 34.3853C179.461 34.5976 179.58 34.7676 179.738 34.8952C179.899 35.0229 180.101 35.0868 180.344 35.0868ZM185.29 34.6985L186.574 31.6804H187.242L185.577 35.6562H185.003L183.372 31.6804H184.032L185.29 34.6985ZM183.817 31.6804V35.6562H183.059V31.6804H183.817ZM186.783 35.6562V31.6804H187.537V35.6562H186.783ZM190.243 35.7365C189.87 35.7365 189.545 35.6511 189.267 35.4802C188.989 35.3094 188.773 35.0704 188.62 34.7632C188.466 34.4561 188.39 34.0971 188.39 33.6864C188.39 33.274 188.466 32.9134 188.62 32.6045C188.773 32.2956 188.989 32.0557 189.267 31.8849C189.545 31.7141 189.87 31.6286 190.243 31.6286C190.616 31.6286 190.941 31.7141 191.219 31.8849C191.497 32.0557 191.712 32.2956 191.866 32.6045C192.019 32.9134 192.096 33.274 192.096 33.6864C192.096 34.0971 192.019 34.4561 191.866 34.7632C191.712 35.0704 191.497 35.3094 191.219 35.4802C190.941 35.6511 190.616 35.7365 190.243 35.7365ZM190.245 35.0868C190.487 35.0868 190.687 35.0229 190.846 34.8952C191.005 34.7676 191.122 34.5976 191.198 34.3853C191.276 34.1731 191.314 33.9393 191.314 33.6839C191.314 33.4302 191.276 33.1972 191.198 32.985C191.122 32.771 191.005 32.5993 190.846 32.4699C190.687 32.3405 190.487 32.2757 190.245 32.2757C190.002 32.2757 189.8 32.3405 189.64 32.4699C189.481 32.5993 189.363 32.771 189.285 32.985C189.209 33.1972 189.171 33.4302 189.171 33.6839C189.171 33.9393 189.209 34.1731 189.285 34.3853C189.363 34.5976 189.481 34.7676 189.64 34.8952C189.8 35.0229 190.002 35.0868 190.245 35.0868ZM198.657 34.9884L198.585 36.7952H197.826V35.6562H197.332V34.9884H198.657ZM192.96 31.6804H193.718V34.9858H195.093V31.6804H195.851V34.9858H197.226V31.6804H197.984V35.6562H192.96V31.6804ZM200.232 34.5717L201.984 31.6804H202.817V35.6562H202.059V32.7624L200.314 35.6562H199.473V31.6804H200.232V34.5717Z" fill="black"/>
<path d="M27.6373 56.2423C28.8947 58.7335 28.1195 60.6877 25.3116 62.1049C24.256 62.6377 22.7345 63.0083 20.747 63.2168C18.6115 63.4469 17.067 63.3523 16.1136 62.9329C17.096 62.6224 18.7654 62.2037 21.1219 61.6766C23.193 61.214 24.3025 60.9454 24.4503 60.8708C25.5059 60.338 26.1329 59.7434 26.3314 59.0869C26.5192 58.4094 26.3414 57.5322 25.7979 56.4555C24.9561 54.7877 23.2561 54.0961 20.6977 54.3807L13.9134 55.8182C11.4723 56.3351 9.93205 55.9602 9.29271 54.6935C8.65337 53.4268 9.41806 51.4779 11.5868 48.8469C13.3976 46.6614 14.8414 45.2969 15.9181 44.7535C17.227 44.0928 18.0155 44.2379 18.2834 45.1887C18.2519 45.2312 18.215 45.263 18.1728 45.2843C18.0883 45.327 17.8875 45.3489 17.5702 45.3501C17.2529 45.3513 17.0309 45.3838 16.9043 45.4478C16.0176 45.8953 14.6844 47.1377 12.9047 49.175C10.8092 51.5837 10.0012 53.263 10.4807 54.2131C10.875 54.9942 12.3137 55.0892 14.7968 54.4982C18.4634 53.6277 20.836 53.1851 21.9147 53.1705C24.6749 53.1283 26.5824 54.1523 27.6373 56.2423ZM35.2989 39.4218C36.5882 41.9763 37.4612 44.9131 37.9179 48.2323C38.5811 53.0101 37.6354 56.0437 35.0809 57.333C33.2653 58.2494 31.2266 57.4904 28.9647 55.0558C27.6373 53.6331 26.5474 52.0773 25.6949 50.3883C24.8212 48.6571 24.3206 46.327 24.1932 43.398C24.054 40.1305 24.4986 37.4425 25.5271 35.334C25.4847 35.3024 25.4212 35.308 25.3368 35.3506C25.2101 35.4145 25.0256 35.5739 24.7833 35.8286C24.541 36.0833 24.346 36.248 24.1982 36.3226L22.9949 36.93C23.5197 35.8704 23.8926 35.2186 24.1138 34.9745C24.3981 34.6455 25.0153 34.2413 25.9653 33.7618C27.7598 32.8561 29.75 33.3615 31.9359 35.2781C33.4533 36.6049 34.5743 37.9862 35.2989 39.4218ZM34.015 39.7122C33.4715 38.6355 32.6903 37.6125 31.6714 36.6434C30.3977 35.432 29.1579 34.7862 27.9519 34.7062C28.0478 34.8962 28.1123 35.1815 28.1455 35.5621C28.1455 35.5621 28.0185 35.5467 27.7646 35.5159C27.5318 35.4745 27.352 35.4858 27.2253 35.5497C25.3042 36.5194 25.0166 40.2009 26.3628 46.5943C26.8043 48.6761 27.1529 49.9703 27.4086 50.477C28.1332 51.9126 28.9788 53.1944 29.9455 54.3224C31.6876 56.357 33.2026 57.0493 34.4904 56.3993C36.5594 55.355 37.2203 52.5446 36.4733 47.968C35.9213 44.6175 35.1019 41.8656 34.015 39.7122ZM54.979 43.3959C54.9619 44.4641 54.1634 45.8738 52.5836 47.6248C51.1724 49.1848 49.8756 50.2631 48.6933 50.8598C45.1677 52.6393 42.4724 51.6818 40.6077 47.9872C40.1175 47.0161 39.6618 45.3521 39.2404 42.9952C37.9223 35.6076 38.8888 31.0933 42.14 29.4523C42.3722 29.3351 42.8321 29.2752 43.5195 29.2726C43.5515 29.3359 43.6258 29.4308 43.7427 29.5573C43.8806 29.6731 43.9655 29.7627 43.9975 29.826C43.8919 29.8793 43.7229 29.9381 43.4905 30.0025C43.2581 30.0668 43.0891 30.1256 42.9835 30.1789C41.379 30.9887 40.4555 32.8853 40.2129 35.8686C40.0921 37.4661 40.1894 39.4434 40.505 41.8007C40.8425 44.3588 41.3256 46.2606 41.9543 47.5062C42.583 48.7518 43.3636 49.6161 44.2961 50.0991C45.3664 50.645 46.5032 50.6143 47.7065 50.0069C48.9943 49.3569 50.2228 48.3793 51.3918 47.074C53.0347 45.2382 54.2304 44.0121 54.979 43.3959ZM68.7497 36.7633C66.6196 38.4212 64.0154 40.5568 60.9371 43.1701C59.5033 44.3706 57.9701 45.8729 56.3377 47.677C55.0422 49.0991 54.3628 49.8261 54.2994 49.8581C54.0883 49.9646 53.739 49.8761 53.2514 49.5923C53.471 48.9252 54.2393 47.9282 55.5563 46.6012C56.6836 45.4759 57.1942 44.8341 57.0878 44.6759C57.0558 44.6126 55.9031 41.8301 53.6297 36.3286L50.3796 28.4724C50.1983 28.0606 50.0335 27.8391 49.8853 27.8079C48.2521 29.4005 47.2616 30.3772 46.914 30.7381C45.8501 31.8843 44.9976 32.9769 44.3564 34.0158C44.3035 34.016 43.8958 33.8906 43.1334 33.6396C43.53 32.221 44.9615 30.4123 47.4279 28.2138C48.6822 27.0774 50.8438 25.3507 53.9126 23.0335L57.0806 21.7525C56.2596 22.8026 54.3092 24.4228 51.2293 26.6131L58.5578 43.2584C63.2286 39.444 65.7645 37.4356 66.1656 37.2331L68.0024 36.3061C68.1721 36.4324 68.4212 36.5848 68.7497 36.7633ZM85.2085 38.5885C85.1663 38.6098 85.0662 38.7001 84.9081 38.8593C84.7608 39.0397 84.6237 39.1618 84.4971 39.2258C84.0115 39.4708 82.2995 38.4144 79.361 36.0565L72.5506 30.5933C70.5762 31.4574 69.7023 32.5077 69.9291 33.7442L71.4831 37.7678C71.462 37.7785 71.383 37.8581 71.246 38.0067C71.1091 38.1552 70.9879 38.2562 70.8823 38.3095C70.2701 38.6185 69.8414 38.5302 69.5963 38.0446C69.4258 37.7068 69.2437 37.0835 69.0499 36.1747C68.8346 35.1708 68.6681 34.4999 68.5505 34.1619C68.223 34.2477 67.6735 34.3661 66.902 34.5171C67.6254 32.854 67.5697 30.6967 66.7348 28.0452C66.3389 26.8411 65.6222 24.6863 64.5846 21.5809C65.8227 21.7771 67.0524 22.534 68.2736 23.8513L71.2044 26.9814C72.3607 27.9077 73.5884 28.1357 74.8874 27.6655C74.6787 28.4066 74.3583 28.9789 73.9262 29.3824L85.2085 38.5885ZM71.436 29.487C69.7061 27.8965 68.4323 26.6587 67.6146 25.7734C67.9149 26.8933 68.4183 28.5465 69.1245 30.7331C69.6738 30.5618 70.1279 30.3856 70.4868 30.2045C70.9302 29.9807 71.2466 29.7415 71.436 29.487ZM90.5935 27.3276C89.5492 28.0401 88.0253 29.1933 86.0219 30.7873L83.0007 33.1466C82.3463 33.4769 81.7899 33.1882 81.3318 32.2804L75.671 16.1839L76.5577 15.7364C76.8333 15.9151 77.1576 16.374 77.5306 17.1129L82.5801 30.9748C83.1288 30.6449 84.2363 29.8475 85.9025 28.5827C87.284 27.541 88.3864 26.8124 89.2098 26.3968C89.4843 26.2583 89.9455 26.5685 90.5935 27.3276Z" fill="#2B00FF"/>
</svg>
